<svg width="50" height="19" viewBox="0 0 50 19" fill="none" xmlns="http://www.w3.org/2000/svg">
<path d="M3.77299 5.65503C3.67508 5.65503 3.65216 5.60711 3.70008 5.53211L4.21258 4.87586C4.26049 4.80294 4.38133 4.75503 4.47924 4.75503H13.1709C13.2667 4.75503 13.2917 4.82794 13.2438 4.90086L12.8292 5.53211C12.7813 5.60711 12.6584 5.67794 12.5855 5.67794L3.77299 5.65503ZM0.0979944 7.89461C7.77033e-05 7.89461 -0.0249223 7.84669 0.0250777 7.77378L0.535494 7.11544C0.583411 7.04253 0.706328 6.99461 0.804244 6.99461H11.9042C12.0022 6.99461 12.0501 7.06753 12.0251 7.14044L11.8313 7.72378C11.8063 7.82169 11.7105 7.86961 11.6126 7.86961L0.0979944 7.89461ZM5.98966 10.1342C5.89174 10.1342 5.86674 10.0613 5.91674 9.98836L6.25633 9.38003C6.30424 9.30711 6.40216 9.23419 6.50008 9.23419H11.3688C11.4667 9.23419 11.5147 9.30711 11.5147 9.40503L11.4667 9.98836C11.4667 10.0863 11.3688 10.1592 11.2959 10.1592L5.98966 10.1342ZM31.2584 5.21753C29.7251 5.60711 28.6772 5.89878 27.1688 6.28836C26.8022 6.38419 26.7792 6.40919 26.4605 6.04461C26.098 5.63003 25.8292 5.36336 25.3188 5.11961C23.7834 4.36544 22.298 4.58419 20.9126 5.48419C19.2563 6.55503 18.4042 8.13836 18.4292 10.1092C18.4522 12.0571 19.7917 13.6634 21.7147 13.9321C23.3709 14.1509 24.7563 13.5675 25.8542 12.3279C26.073 12.0571 26.2667 11.7654 26.5105 11.4238H21.8126C21.3022 11.4238 21.1792 11.1071 21.3501 10.6946C21.6667 9.94044 22.2501 8.67378 22.5917 8.04044C22.6439 7.92311 22.7293 7.82366 22.8375 7.75442C22.9456 7.68517 23.0717 7.64916 23.2001 7.65086H32.0605C32.0126 8.30919 32.0126 8.96544 31.9147 9.62378C31.6625 11.357 30.9759 12.9982 29.9188 14.3946C28.1667 16.7071 25.8772 18.1446 22.9813 18.5321C20.5959 18.8488 18.3792 18.3863 16.4334 16.9279C14.6313 15.5634 13.6084 13.7613 13.3417 11.5217C13.0251 8.86753 13.8042 6.48211 15.4105 4.38836C17.1397 2.12586 19.4272 0.68836 22.2272 0.180027C24.5147 -0.23664 26.7063 0.0341926 28.6772 1.36961C29.9688 2.22378 30.8917 3.39044 31.5022 4.80294C31.648 5.02169 31.5501 5.14461 31.2584 5.21961M39.3167 18.68C37.1001 18.63 35.0792 17.9967 33.3751 16.5363C31.9574 15.3415 31.0229 13.6716 30.7459 11.8384C30.3084 9.08836 31.0626 6.65294 32.7188 4.48628C34.4959 2.14878 36.6376 0.932109 39.5355 0.423776C42.0188 -0.0137242 44.3563 0.225859 46.473 1.66336C48.3959 2.97586 49.5897 4.75503 49.9063 7.09044C50.3188 10.3779 49.3709 13.055 47.1063 15.3446C45.5001 16.9759 43.5272 17.9967 41.2626 18.4592C40.6063 18.5842 39.9501 18.605 39.3167 18.68ZM45.1084 8.84669C45.0855 8.52794 45.0855 8.28419 45.0376 8.04044C44.6001 5.63003 42.3834 4.26961 40.0709 4.80294C37.8063 5.31336 36.3459 6.75086 35.8105 9.03836C35.373 10.9384 36.298 12.8613 38.0501 13.6425C39.3897 14.2259 40.7272 14.1509 42.0188 13.4967C43.9417 12.4967 44.9876 10.9384 45.1105 8.84461L45.1084 8.84669Z" fill="url(#paint0_linear_800_282)"/>
<defs>
<linearGradient id="paint0_linear_800_282" x1="-4.19452e-07" y1="9" x2="50" y2="9" gradientUnits="userSpaceOnUse">
<stop stop-color="#E9AFFE"/>
<stop offset="1" stop-color="#9CA2F4"/>
</linearGradient>
</defs>
</svg>
